<svg height="512pt" viewBox="0 -5 512 512" width="512pt" xmlns="http://www.w3.org/2000/svg"><path d="m507.492188 139.839844-135.332032-135.332032c-2.972656-2.972656-6.933594-4.507812-10.894531-4.507812h-195.855469c-8.511718 0-15.402344 6.902344-15.402344 15.40625v182.347656h-106.164062c-24.175781 0-43.84375 19.675782-43.84375 43.851563v144.070312c0 24.175781 19.667969 43.84375 43.84375 43.84375h106.164062v56.710938c0 8.503906 6.890626 15.40625 15.402344 15.40625h331.183594c8.515625 0 15.40625-6.902344 15.40625-15.40625v-335.496094c0-3.949219-1.53125-7.917969-4.507812-10.894531zm-26.304688 330.988281h-300.371094v-41.308594h209.769532c24.175781 0 43.84375-19.667969 43.84375-43.84375v-144.070312c0-24.175781-19.667969-43.851563-43.84375-43.851563h-209.769532v-166.941406h165.042969v119.921875c0 8.503906 6.902344 15.40625 15.40625 15.40625h119.921875zm-450.375-85.152344v-144.070312c0-7.1875 5.851562-13.042969 13.03125-13.042969h346.742188c7.1875 0 13.03125 5.855469 13.03125 13.042969v144.070312c0 7.191407-5.84375 13.035157-13.03125 13.035157-13.820313 0-332.9375 0-346.742188 0-7.179688 0-13.03125-5.84375-13.03125-13.035157zm345.855469-333.082031c3.898437 3.894531 79.449219 79.449219 82.738281 82.738281h-82.738281zm0 0"/><path d="m116.300781 341.667969h-44.03125c-20.347656 0-20.382812 30.8125 0 30.8125h44.03125c14.480469 0 27.113281-8.011719 33.707031-19.84375 6.480469-11.628907 6.476563-25.820313 0-37.445313-6.59375-11.820312-19.226562-19.839844-33.707031-19.839844h-20.871093c-10.28125 0-10.21875-15.507812 0-15.507812h44.027343c20.34375 0 20.339844-30.8125 0-30.8125h-44.027343c-21.257813 0-38.5625 17.304688-38.5625 38.566406 0 21.269532 17.304687 38.5625 38.5625 38.5625h20.871093c10.242188 0 10.257813 15.507813 0 15.507813zm0 0"/><path d="m317.542969 372.480469h52.460937c20.421875 0 20.332032-30.8125 0-30.8125h-37.054687v-77.230469c0-20.355469-30.808594-20.386719-30.808594 0v92.636719c0 8.515625 6.898437 15.40625 15.402344 15.40625zm0 0"/><path d="m222.617188 372.480469c8.503906 0 16.542968-2.023438 23.671874-5.609375l14.214844 14.214844c14.335938 14.339843 36.339844-7.25 21.78125-21.78125l-13.679687-13.683594c4.34375-7.671875 6.832031-16.535156 6.832031-25.960938v-17.796875c0-29.128906-23.695312-52.832031-52.820312-52.832031-29.109376 0-52.832032 23.679688-52.832032 52.832031v17.796875c0 29.179688 23.757813 52.820313 52.832032 52.820313zm-22.019532-70.617188c0-29.101562 44.027344-29.105469 44.027344 0 0 19.574219.03125 18.316407-.082031 19.695313l-4.980469-4.980469c-14.371094-14.394531-36.203125 7.367187-21.78125 21.785156l3.242188 3.242188c-11.398438-.808594-20.425782-10.339844-20.425782-21.945313zm0 0"/></svg>